<?xml version="1.0" standalone="no"?>
<!DOCTYPE svg PUBLIC "-//W3C//DTD SVG 20010904//EN"
 "http://www.w3.org/TR/2001/REC-SVG-20010904/DTD/svg10.dtd">
<svg version="1.0" xmlns="http://www.w3.org/2000/svg"
 width="500.000000pt" height="500.000000pt" viewBox="0 0 500.000000 500.000000"
 preserveAspectRatio="xMidYMid meet">

<g transform="translate(0.000000,500.000000) scale(0.100000,-0.100000)"
fill="#000000" stroke="none">
<path d="M970 4914 c-435 -79 -798 -413 -919 -846 -51 -183 -51 -162 -51
-2185 l0 -1883 58 0 57 0 245 245 c187 187 247 242 257 233 7 -6 13 -15 13
-22 0 -6 -100 -111 -222 -233 l-223 -223 70 0 70 0 275 275 c244 245 290 288
290 270 0 -2 -123 -126 -273 -274 l-272 -270 1905 -1 c1905 0 1905 0 1960 21
367 138 647 445 741 811 49 195 49 170 49 2098 l0 1805 -239 -239 c-207 -207
-242 -238 -255 -227 -9 8 -16 17 -16 20 0 4 115 122 255 262 l255 254 0 63 c0
40 -4 62 -11 60 -5 -2 -174 -167 -375 -367 -200 -200 -368 -361 -371 -357 -4
4 155 169 352 366 l360 360 -1955 -1 c-1602 -1 -1969 -4 -2030 -15z m1510
-902 c0 -5 23 -8 50 -7 30 1 50 -3 50 -9 0 -6 5 -4 10 4 9 13 10 13 10 0 0
-13 1 -13 10 0 9 13 10 13 10 0 0 -13 1 -13 10 0 8 13 10 13 10 -1 0 -17 28
-19 417 -32 28 -1 50 -5 47 -8 -2 -4 0 -9 6 -11 5 -1 -160 -3 -368 -3 -315 -1
-416 -5 -617 -24 -132 -13 -280 -31 -328 -42 -80 -17 -91 -18 -115 -4 -23 14
-24 15 -4 10 13 -4 28 -2 35 3 7 5 32 12 57 16 166 23 230 39 230 56 0 13 146
33 207 28 32 -3 52 -3 46 -1 -36 12 -4 23 67 23 50 0 80 -4 80 -11 0 -6 14 -9
33 -7 19 2 31 8 30 16 -2 6 2 12 7 12 6 0 10 -4 10 -8z m-530 -67 c-19 -7 -42
-13 -50 -13 -8 0 1 6 20 13 19 7 42 13 50 13 8 0 -1 -6 -20 -13z m1250 -1 c0
-2 -17 -4 -37 -3 -29 0 -33 2 -18 8 18 7 55 4 55 -5z m58 -1 c-10 -2 -26 -2
-35 0 -10 3 -2 5 17 5 19 0 27 -2 18 -5z m135 -30 c-7 -2 -19 -2 -25 0 -7 3
-2 5 12 5 14 0 19 -2 13 -5z m-1708 -53 c8 -13 -15 -13 -35 0 -12 8 -11 10 7
10 12 0 25 -4 28 -10z m-50 -9 c13 -6 3 -8 -31 -7 -29 1 -50 4 -47 9 5 9 52 8
78 -2z m-50 -21 c-11 -5 -27 -9 -35 -9 -9 0 -8 4 5 9 11 5 27 9 35 9 9 0 8 -4
-5 -9z m1708 3 c-7 -2 -21 -2 -30 0 -10 3 -4 5 12 5 17 0 24 -2 18 -5z m80
-10 c-7 -2 -19 -2 -25 0 -7 3 -2 5 12 5 14 0 19 -2 13 -5z m102 -25 c7 -7 2
-8 -15 -3 -14 4 -29 12 -35 17 -7 7 -2 8 15 3 14 -4 30 -12 35 -17z m-2060
-18 c-3 -5 -11 -10 -16 -10 -6 0 -7 5 -4 10 3 6 11 10 16 10 6 0 7 -4 4 -10z
m2159 -15 c20 -8 36 -22 36 -31 0 -13 -6 -12 -37 7 -69 41 -69 53 1 24z m-237
-17 c12 -13 13 -18 4 -18 -10 0 -11 -9 -6 -32 3 -18 7 -51 8 -72 1 -25 8 -41
17 -44 25 -9 38 -28 45 -66 4 -21 13 -36 21 -36 8 0 14 -10 14 -24 0 -18 4
-23 18 -20 12 4 21 -4 30 -26 11 -24 18 -29 34 -24 11 3 18 2 15 -2 -3 -5 8
-9 24 -9 16 0 29 2 29 5 0 3 11 6 25 6 14 1 22 -2 19 -7 -3 -5 4 -9 16 -9 12
0 19 4 16 9 -3 5 6 11 20 14 23 4 24 3 11 -10 -16 -16 -117 -45 -302 -89 -150
-34 -158 -37 -163 -53 -4 -12 11 -13 94 -7 54 4 96 4 93 1 -5 -4 -84 -23 -224
-52 l-29 -6 35 49 c79 109 90 240 29 328 -62 90 -196 125 -348 91 -106 -24
-165 -58 -244 -138 -83 -84 -116 -150 -133 -264 -19 -125 5 -263 74 -438 15
-38 36 -109 46 -156 17 -83 17 -89 0 -144 -20 -63 -36 -77 -111 -100 -70 -21
-80 -19 -90 17 -7 24 -21 38 -56 56 l-47 24 -36 -21 c-20 -11 -38 -21 -39 -21
-2 0 -6 39 -9 88 -5 91 -30 225 -50 270 -9 22 -12 -22 -17 -225 -3 -139 -9
-256 -13 -259 -4 -4 -7 14 -7 41 0 52 -47 353 -58 370 -4 5 -10 -87 -13 -205
-8 -314 -37 -509 -103 -690 -36 -101 -124 -290 -164 -354 -23 -37 -24 -38 -38
-18 -8 11 -12 26 -9 34 4 10 -7 13 -45 13 -47 0 -50 1 -49 25 0 14 -1 34 -3
45 -2 14 2 19 15 17 12 -2 17 4 17 18 0 14 4 19 12 14 7 -5 8 -3 4 5 -5 7 -2
20 6 29 33 40 76 206 89 343 7 75 9 143 6 152 -12 31 -24 17 -31 -35 -7 -53
-31 -143 -61 -228 -15 -44 -15 -44 -9 68 3 68 2 112 -4 112 -5 0 -17 -33 -26
-72 -23 -96 -57 -210 -68 -224 -4 -6 -14 -40 -21 -75 -14 -72 -37 -92 -115
-105 -37 -6 -42 -4 -36 10 5 12 2 15 -12 10 -14 -5 -12 -1 5 11 23 17 25 17
37 1 11 -16 13 -16 19 3 3 12 10 21 14 21 12 0 29 43 23 59 -3 10 -8 7 -18
-10 -13 -23 -13 -23 -12 14 2 47 -10 60 -18 20 -3 -16 -12 -30 -20 -30 -17 0
-16 -1 -4 31 7 19 6 25 -3 23 -7 -1 -11 4 -9 11 1 6 -4 12 -12 12 -8 0 -18 14
-22 32 -11 51 -68 128 -95 128 -5 0 -9 8 -9 18 0 10 -7 27 -15 39 -12 17 -12
23 -2 27 9 5 9 7 0 12 -7 3 -13 13 -13 22 -1 14 -3 14 -16 -3 -15 -20 -15 -20
-30 -1 -36 50 -28 51 285 55 124 1 229 5 233 7 16 10 7 22 -19 29 -16 4 -84
15 -152 26 -68 10 -127 20 -130 21 -3 1 89 5 204 8 202 5 247 13 180 32 -35
10 -364 57 -392 56 -34 -1 -278 12 -338 18 -43 5 -54 9 -40 15 16 6 14 8 -12
8 -48 1 -66 10 -52 27 6 8 17 14 24 14 7 0 15 6 18 13 3 9 16 12 37 9 21 -3
35 0 41 9 14 23 11 25 -26 21 -26 -3 -35 0 -35 10 0 22 11 29 26 17 15 -12 22
18 28 109 3 46 2 51 -9 35 -11 -15 -16 -16 -27 -5 -11 11 -10 12 4 7 13 -5 18
-2 18 10 0 9 -4 14 -9 11 -5 -3 -8 5 -7 18 0 14 7 23 16 22 8 -1 14 4 13 10
-1 8 14 8 50 3 29 -5 124 -4 212 1 88 5 228 12 310 16 159 6 301 26 318 43 8
8 -93 9 -331 6 -225 -3 -342 -2 -342 5 0 6 15 10 34 10 83 0 500 22 586 30 91
10 176 31 165 42 -3 3 -177 4 -388 2 -333 -2 -374 -1 -317 10 120 24 234 46
370 72 74 14 191 38 260 54 69 15 158 33 198 40 80 15 96 25 59 39 -17 7 -58
5 -123 -5 -192 -29 -107 -1 135 44 52 10 96 23 99 30 7 23 -56 24 -222 3 -94
-12 -232 -26 -306 -31 -74 -6 -182 -19 -240 -30 -58 -10 -161 -24 -230 -30
-69 -6 -166 -17 -217 -25 -51 -8 -111 -14 -133 -13 -40 1 -41 2 -18 14 12 7
31 13 40 14 9 0 21 6 25 14 4 8 17 15 27 17 20 4 66 80 66 108 0 9 9 40 20 69
11 29 20 60 20 70 0 10 7 28 16 41 13 18 18 20 26 10 7 -10 8 -8 4 6 -3 11 5
41 19 69 19 37 22 53 14 60 -8 8 -13 8 -16 -1 -3 -7 -17 -9 -40 -6 -26 4 -34
3 -29 -6 4 -6 0 -19 -9 -28 -14 -13 -18 -14 -25 -3 -11 18 -2 33 16 26 8 -3
13 0 11 7 -1 7 13 13 36 15 29 3 37 7 37 23 0 14 -7 19 -27 18 -25 0 -26 -1
-8 -9 13 -5 14 -9 5 -9 -8 0 -24 4 -35 9 -16 6 -17 9 -5 13 40 14 69 16 72 5
2 -6 10 -8 17 -4 7 5 10 14 7 22 -4 10 3 12 27 8 23 -3 27 -2 12 4 -16 8 -14
10 15 16 19 4 49 10 65 12 17 2 68 15 115 29 172 49 357 76 655 95 99 7 259
18 355 25 97 7 303 12 462 12 259 -2 289 -4 305 -19z m74 -16 c-7 -2 -18 1
-23 6 -8 8 -4 9 13 5 13 -4 18 -8 10 -11z m59 4 c0 -2 -9 -6 -20 -9 -11 -3
-18 -1 -14 4 5 9 34 13 34 5z m-354 -209 c68 -35 80 -135 30 -245 -32 -70 -84
-122 -121 -122 -14 0 -43 7 -65 16 -32 13 -42 23 -50 53 -14 52 -13 59 18 78
38 24 52 43 52 73 0 68 -65 91 -131 46 -51 -35 -70 -82 -80 -200 -11 -145 9
-271 64 -396 42 -95 42 -95 42 -215 -1 -85 -6 -137 -19 -179 -36 -121 -127
-274 -226 -380 -48 -52 -164 -114 -231 -123 -51 -7 -145 15 -176 41 -24 20
-25 25 -14 57 13 42 32 216 31 284 -3 104 -3 105 36 121 54 23 90 5 120 -60
13 -28 24 -67 25 -86 l1 -35 10 30 c5 17 9 42 9 56 0 25 3 26 76 32 83 6 124
27 162 83 45 65 36 251 -19 385 -46 110 -64 215 -57 335 4 87 9 110 33 154 52
96 149 173 264 211 41 14 181 4 216 -14z m-1939 -23 c-3 -3 -12 -4 -19 -1 -8
3 -5 6 6 6 11 1 17 -2 13 -5z m2642 -57 c-2 -1 -13 -9 -24 -17 -19 -14 -19
-14 -6 3 7 9 18 17 24 17 6 0 8 -1 6 -3z m-2601 -38 c-2 -6 -8 -10 -13 -10 -5
0 -11 4 -13 10 -2 6 4 11 13 11 9 0 15 -5 13 -11z m1691 -52 c-34 -26 -56
-117 -28 -117 6 0 8 -7 5 -16 -17 -44 69 -114 139 -114 43 0 103 24 121 48 10
12 13 13 14 3 0 -11 19 -12 104 -7 l104 7 -24 -77 c-28 -92 -76 -216 -81 -210
-2 2 1 16 8 32 10 27 39 164 39 186 0 6 -6 5 -15 -2 -8 -7 -15 -18 -15 -26 0
-7 -11 -39 -24 -71 -13 -32 -43 -107 -66 -168 -23 -60 -62 -148 -86 -194 -24
-47 -44 -92 -44 -100 0 -9 -25 -59 -55 -111 -53 -92 -71 -135 -40 -94 10 13
13 14 10 3 -3 -9 -20 -26 -36 -38 -19 -14 -28 -28 -25 -37 3 -9 2 -12 -5 -9
-6 4 -9 1 -7 -7 2 -8 -10 -30 -25 -49 -15 -19 -59 -76 -98 -126 -38 -51 -101
-125 -140 -165 -38 -40 -102 -111 -142 -157 -40 -46 -123 -137 -186 -202 -62
-65 -120 -127 -128 -139 -8 -11 -18 -18 -23 -15 -5 3 -11 -3 -15 -14 -7 -23
-33 -35 -49 -22 -8 7 -12 4 -12 -8 0 -12 5 -17 14 -14 7 3 -2 -12 -22 -33 -27
-30 -38 -36 -47 -27 -9 9 -9 16 1 28 7 8 17 15 23 15 7 0 7 -4 -1 -12 -7 -7
-12 -16 -12 -21 0 -5 7 -2 15 7 8 8 13 21 10 29 -3 7 -1 26 5 42 10 26 12 27
29 11 17 -15 18 -14 30 11 10 24 10 26 -2 11 -17 -22 -31 -23 -23 -3 7 19 -8
19 -24 1 -6 -8 -18 -12 -27 -9 -11 5 -14 -1 -12 -23 2 -16 0 -35 -4 -42 -11
-16 -30 -16 -21 1 6 10 4 10 -7 0 -18 -18 -39 -16 -39 3 0 8 -4 13 -9 10 -5
-4 -7 3 -4 14 6 22 23 26 41 8 16 -16 27 15 13 40 -8 14 -20 19 -41 18 -36 -3
-37 2 -5 32 17 16 23 31 20 45 -6 22 0 35 86 190 25 45 60 123 79 173 l33 91
33 -19 c41 -24 127 -48 173 -48 60 0 184 40 246 81 97 62 194 184 268 336 53
109 72 216 65 354 -5 83 -9 94 -66 206 -107 209 -123 311 -73 444 20 54 45 77
81 78 13 0 13 -1 -1 -12z m821 -120 c0 -7 -12 -18 -27 -25 l-28 -11 34 3 c31
3 32 2 16 -11 -11 -7 -28 -14 -39 -14 -13 -1 -15 -3 -6 -5 11 -3 14 -16 12
-49 -2 -25 0 -45 6 -45 15 0 35 -84 30 -128 -3 -32 0 -39 12 -34 9 3 5 -6 -10
-24 -14 -16 -27 -31 -29 -34 -2 -3 0 6 3 20 l7 25 -14 -23 c-7 -12 -16 -20
-19 -17 -3 4 -9 -3 -13 -14 -3 -12 -10 -19 -15 -16 -4 3 -7 -3 -6 -13 0 -9 -5
-16 -12 -14 -8 1 -11 -2 -8 -7 4 -5 -32 -66 -79 -135 -47 -69 -85 -130 -85
-135 0 -5 -6 -14 -14 -20 -15 -13 -117 -188 -149 -256 -10 -22 -27 -58 -37
-80 -36 -75 -110 -244 -110 -250 0 -3 5 -3 11 1 6 3 3 -5 -6 -20 -10 -15 -15
-29 -12 -32 7 -7 -114 -246 -165 -325 -33 -52 -40 -57 -114 -84 -44 -15 -99
-38 -124 -50 -25 -13 -81 -35 -125 -50 -44 -15 -112 -43 -152 -62 -40 -19 -88
-37 -108 -40 -19 -3 -38 -10 -41 -14 -3 -5 -14 -9 -25 -9 -11 0 -18 -4 -15 -9
3 -5 -3 -11 -14 -14 -11 -3 -17 -1 -14 4 3 6 0 17 -8 26 -12 15 -9 15 24 9 20
-4 39 -2 42 3 7 12 -18 33 -29 23 -4 -4 -4 8 0 26 5 23 3 32 -6 32 -17 0 -5
11 15 14 9 1 15 4 14 7 -6 9 47 56 57 51 6 -3 7 -2 3 3 -10 11 11 37 23 29 5
-3 8 -1 7 4 -4 13 64 92 80 92 6 0 12 4 12 8 0 9 58 73 240 266 58 61 133 145
166 186 152 188 307 459 364 635 13 39 31 87 41 107 25 48 89 290 104 389 l5
36 85 7 c79 7 205 43 230 67 12 12 15 11 15 -4z m195 -156 c-16 -16 -32 -27
-35 -24 -4 4 50 52 60 53 3 0 -8 -13 -25 -29z m-45 -45 c0 -3 -4 -8 -10 -11
-5 -3 -10 -1 -10 4 0 6 5 11 10 11 6 0 10 -2 10 -4z m-30 -176 c0 -11 -4 -20
-10 -20 -5 0 -7 8 -3 18 4 11 -3 8 -21 -10 -14 -15 -26 -36 -26 -46 0 -11 -6
-25 -14 -31 -8 -7 -17 -23 -20 -36 -4 -14 -11 -25 -16 -25 -6 0 -10 -5 -10
-11 0 -5 4 -8 9 -5 5 3 12 -2 16 -11 3 -10 1 -19 -4 -21 -19 -6 -13 -60 8 -71
15 -8 20 -6 29 14 13 28 27 32 36 10 3 -9 0 -15 -9 -15 -8 0 -15 -7 -15 -15 0
-7 -8 -19 -17 -24 -20 -12 -13 -14 11 -5 9 3 16 12 16 20 0 8 5 14 10 14 6 0
10 -3 10 -7 0 -12 -33 -43 -47 -43 -7 0 -13 -4 -13 -8 0 -5 -12 -14 -26 -20
-25 -12 -206 -143 -232 -169 -7 -7 -14 -13 -16 -13 -4 0 99 204 120 237 12 18
24 30 28 25 4 -4 6 0 5 8 -5 22 37 60 67 60 16 0 24 5 21 13 -2 6 -15 12 -29
11 -18 -1 -25 3 -21 12 2 7 11 10 19 7 8 -3 14 0 14 6 0 6 -4 11 -10 11 -5 0
-7 7 -3 16 4 11 9 12 16 5 16 -16 24 -13 30 12 6 20 5 21 -7 4 -12 -15 -14
-15 -19 -3 -4 10 13 36 46 71 55 58 77 68 77 35z m-10 -36 c0 -3 -7 -12 -15
-20 -16 -17 -18 -14 -9 10 6 15 24 23 24 10z m-16 -68 c-3 -9 -10 -16 -15 -16
-14 0 -11 28 4 33 16 6 19 3 11 -17z m121 -96 c3 -6 -1 -7 -9 -4 -18 7 -21 14
-7 14 6 0 13 -4 16 -10z m-39 -9 c-7 -11 -56 -21 -56 -10 0 9 19 17 43 18 10
1 16 -3 13 -8z m-43 -45 c4 -10 1 -13 -8 -9 -8 3 -12 9 -9 14 7 12 11 11 17
-5z m-93 -246 c-16 -4 -26 -14 -28 -28 -4 -25 7 -28 28 -9 12 10 12 9 2 -4 -6
-9 -9 -19 -5 -22 3 -4 -2 -7 -13 -7 -11 0 -25 9 -32 20 -14 23 -34 27 -26 5 4
-9 0 -15 -9 -15 -10 0 -13 -7 -10 -20 3 -11 9 -20 14 -20 5 0 9 -9 9 -20 0
-11 -4 -20 -10 -20 -5 0 -10 -9 -10 -20 0 -11 2 -20 4 -20 2 0 13 -3 23 -6 17
-6 17 -6 -1 8 -24 19 -6 33 32 23 20 -5 23 -8 12 -15 -11 -7 -10 -9 7 -7 12 0
20 4 17 8 -2 4 4 9 14 12 9 3 35 13 57 22 34 15 37 15 26 1 -7 -9 -17 -14 -21
-11 -5 3 -10 1 -12 -4 -6 -16 -188 -122 -198 -116 -6 4 -9 2 -8 -4 2 -6 -7
-17 -19 -24 -53 -29 -195 -121 -282 -181 -52 -36 -97 -64 -100 -61 -5 5 33 79
54 105 7 8 38 65 70 125 32 61 65 118 74 128 23 27 116 79 189 106 35 13 62
29 62 37 0 8 6 14 13 14 6 0 23 9 36 19 14 11 33 16 45 13 20 -6 20 -6 -4 -12z
m-1625 -148 c-4 -35 -9 -62 -11 -59 -3 2 -1 42 3 88 4 46 9 73 11 60 2 -14 1
-54 -3 -89z m1590 68 c3 -5 -3 -10 -14 -10 -12 0 -21 5 -21 10 0 6 6 10 14 10
8 0 18 -4 21 -10z m51 -31 c7 -12 -12 -29 -33 -29 -7 0 -13 9 -13 20 0 22 34
28 46 9z m-495 -494 c29 -16 31 -35 3 -35 -8 0 -14 -4 -14 -10 0 -5 -13 -10
-29 -10 -16 0 -31 -6 -35 -15 -3 -8 -10 -15 -16 -15 -16 0 -12 22 8 36 9 7 12
14 6 14 -18 0 -37 -28 -30 -45 3 -8 12 -15 21 -15 21 0 19 -3 -15 -41 -17 -17
-29 -38 -26 -46 4 -9 -4 -13 -26 -13 l-31 0 27 21 c31 24 33 44 7 58 -21 12
-35 -7 -25 -33 3 -8 0 -17 -7 -22 -9 -5 -10 -2 -6 9 3 9 1 19 -5 23 -7 5 -9
-4 -6 -25 3 -20 1 -30 -6 -28 -18 6 -13 51 8 70 10 9 16 17 12 17 -3 0 1 11
10 25 13 19 124 94 142 95 2 0 16 -7 33 -15z m-1865 -142 c-10 -10 -76 -11
-76 -1 0 4 19 8 42 8 23 0 38 -3 34 -7z m1775 -24 c-5 -13 -10 -19 -10 -12 -1
15 10 45 15 40 3 -2 0 -15 -5 -28z m-137 -14 c3 -8 1 -15 -4 -15 -6 0 -10 7
-10 15 0 8 2 15 4 15 2 0 6 -7 10 -15z m-1397 -11 c-3 -3 -12 -4 -19 -1 -8 3
-5 6 6 6 11 1 17 -2 13 -5z m1382 -57 c-2 -1 -13 -9 -24 -17 -19 -14 -19 -14
-6 3 7 9 18 17 24 17 6 0 8 -1 6 -3z m-1278 -80 c-10 -9 -11 -8 -5 6 3 10 9
15 12 12 3 -3 0 -11 -7 -18z m1159 10 c0 -10 -38 -44 -67 -59 -47 -27 -63 -21
-21 7 20 14 40 25 43 25 4 0 13 7 21 15 15 14 24 19 24 12z m-126 -85 c2 -4
-5 -9 -17 -9 -17 -2 -19 0 -7 7 18 12 18 12 24 2z m-1454 -61 c0 -14 -35 -16
-167 -13 -174 4 -156 22 22 22 80 0 145 -4 145 -9z m2555 -1 c7 -11 2 -11
-145 -11 -147 0 -152 0 -145 11 4 6 63 10 145 10 82 0 141 -4 145 -10z m-1875
-44 c0 -2 -8 -10 -17 -17 -16 -13 -17 -12 -4 4 13 16 21 21 21 13z m185 -6
c-3 -5 -11 -10 -16 -10 -6 0 -7 5 -4 10 3 6 11 10 16 10 6 0 7 -4 4 -10z"/>
<path d="M2498 3983 c12 -2 32 -2 45 0 12 2 2 4 -23 4 -25 0 -35 -2 -22 -4z"/>
<path d="M2010 3950 c0 -5 7 -7 15 -4 8 4 15 8 15 10 0 2 -7 4 -15 4 -8 0 -15
-4 -15 -10z"/>
<path d="M1168 3053 c6 -2 18 -2 25 0 6 3 1 5 -13 5 -14 0 -19 -2 -12 -5z"/>
<path d="M1120 3040 c0 -5 10 -10 23 -10 18 0 19 2 7 10 -19 13 -30 13 -30 0z"/>
<path d="M1110 2660 c-6 -11 -7 -20 -3 -20 5 0 14 9 21 20 7 11 8 20 2 20 -5
0 -14 -9 -20 -20z"/>
<path d="M1541 1689 c-7 -12 -10 -23 -8 -26 3 -3 11 5 17 17 6 12 10 23 8 25
-2 2 -10 -5 -17 -16z"/>
<path d="M1784 1548 c-4 -6 -2 -14 4 -16 7 -2 12 -10 12 -18 0 -8 -6 -11 -15
-8 -8 4 -15 2 -15 -4 0 -5 6 -12 13 -15 15 -6 55 59 44 70 -4 3 -7 -1 -7 -10
0 -9 -5 -17 -11 -17 -6 0 -9 7 -5 15 6 18 -10 20 -20 3z"/>
<path d="M2165 1445 c0 -13 2 -26 5 -29 3 -3 6 5 5 19 0 13 -2 26 -5 29 -3 3
-6 -5 -5 -19z"/>
<path d="M2125 1430 c-3 -5 -1 -10 4 -10 6 0 11 5 11 10 0 6 -2 10 -4 10 -3 0
-8 -4 -11 -10z"/>
<path d="M3670 3099 c0 -5 -6 -7 -12 -3 -8 5 -8 1 1 -10 10 -12 14 -40 13 -91
-1 -49 3 -75 11 -78 9 -3 10 15 5 77 -4 44 -8 89 -8 99 -1 18 -10 24 -10 6z"/>
<path d="M2560 1385 c-14 -8 -20 -14 -14 -15 5 0 19 7 30 15 24 18 16 19 -16
0z"/>
<path d="M2280 1346 c0 -2 7 -9 15 -16 9 -7 15 -8 15 -2 0 5 -7 12 -15 16 -8
3 -15 4 -15 2z"/>
<path d="M2340 1300 c0 -5 5 -10 11 -10 5 0 7 5 4 10 -3 6 -8 10 -11 10 -2 0
-4 -4 -4 -10z"/>
<path d="M2380 1306 c0 -2 7 -6 15 -10 8 -3 15 -1 15 4 0 6 -7 10 -15 10 -8 0
-15 -2 -15 -4z"/>
<path d="M3576 2453 c-6 -14 -5 -15 5 -6 7 7 10 15 7 18 -3 3 -9 -2 -12 -12z"/>
<path d="M3578 2243 c7 -3 16 -2 19 1 4 3 -2 6 -13 5 -11 0 -14 -3 -6 -6z"/>
<path d="M3253 1753 c4 -3 2 -12 -4 -19 -7 -8 -6 -14 2 -20 8 -5 9 -3 5 5 -5
8 -3 12 5 10 35 -4 43 1 23 16 -19 14 -43 21 -31 8z"/>
<path d="M3139 1657 c13 -13 54 -20 47 -8 -3 5 -17 11 -32 14 -18 3 -22 1 -15
-6z"/>
</g>
</svg>
